<?xml version="1.0" encoding="utf-8"?>
<!-- Generator: Adobe Illustrator 28.0.0, SVG Export Plug-In . SVG Version: 6.00 Build 0)  -->
<svg version="1.1" id="Layer_1" xmlns="http://www.w3.org/2000/svg" xmlns:xlink="http://www.w3.org/1999/xlink" x="0px" y="0px"
	 viewBox="0 0 512 512" style="enable-background:new 0 0 512 512;" xml:space="preserve">
<style type="text/css">
	.st0{fill-rule:evenodd;clip-rule:evenodd;}
</style>
<path class="st0" d="M349.15,199.45h20.1V311.6h-20.1V199.45z M511.93,246.7v-17.4h-20.79V206.6h-20.1v82.72
	c0,7.6,1.91,13.39,5.68,17.22c3.77,3.83,9.64,5.77,17.46,5.77h17.75v-17.4h-12.99c-2.82,0-4.85-0.62-6.02-1.85
	c-1.08-1.12-1.78-3.96-1.78-7.22V246.7L511.93,246.7z M212.6,289.77l20.78-60.48h21.12l-30,82.31h-23.8l-30-82.31h21.12
	L212.6,289.77z M438.28,270.53c0,5.21-0.79,9.74-2.35,13.47c-1.54,3.71-3.76,6.55-6.58,8.45c-2.82,1.9-6.29,2.86-10.31,2.86
	c-5.75,0-10.08-1.89-12.89-5.61c-2.83-3.76-4.27-9.47-4.27-16.95V229.3h-20.1v45.67c0,7.11,0.89,13.14,2.64,17.93
	c1.76,4.8,4.17,8.7,7.17,11.6c3,2.89,6.5,4.98,10.41,6.21c3.89,1.22,8.07,1.84,12.43,1.84c6.28,0,11.49-1.14,15.46-3.39
	c3.62-2.06,6.66-4.46,9.03-7.16l1.8,9.6h17.64V229.3h-20.1V270.53z M318.42,233.64c-6.33-3.51-13.86-5.29-22.35-5.29
	c-8.39,0-15.89,1.78-22.28,5.29c-6.39,3.52-11.42,8.49-14.93,14.78c-3.51,6.28-5.29,13.72-5.29,22.12c0,8.29,1.78,15.68,5.29,21.96
	c3.51,6.28,8.54,11.25,14.93,14.77c6.39,3.51,13.88,5.29,22.28,5.29c8.5,0,16.02-1.78,22.35-5.29c6.34-3.52,11.34-8.49,14.85-14.77
	c3.51-6.28,5.29-13.67,5.29-21.96c0-8.39-1.78-15.83-5.29-22.12C329.75,242.12,324.76,237.15,318.42,233.64z M307.8,292.45
	c-3.24,2.11-7.19,3.18-11.73,3.18c-4.44,0-8.37-1.07-11.66-3.18c-3.3-2.11-5.88-5.09-7.69-8.86c-1.81-3.77-2.73-8.16-2.73-13.06
	c0-4.99,0.92-9.41,2.73-13.13c1.8-3.72,4.39-6.7,7.69-8.86c3.29-2.16,7.21-3.26,11.65-3.26c4.55,0,8.49,1.1,11.73,3.26
	c3.25,2.17,5.81,5.15,7.62,8.87c1.81,3.73,2.73,8.15,2.73,13.13c0,4.88-0.92,9.28-2.73,13.06
	C313.61,287.35,311.04,290.33,307.8,292.45z M20.82,227.13H-0.07v84.47h20.89V227.13z M86.33,231.96c0-17.92-14.6-32.51-32.54-32.51
	H-0.07v18.04h51.3c8.12,0,14.85,6.38,14.99,14.22c0.07,3.93-1.4,7.63-4.15,10.43c-2.75,2.8-6.43,4.35-10.35,4.35H31.75
	c-0.71,0-1.29,0.58-1.29,1.29v16.03c0,0.27,0.08,0.53,0.24,0.75l33.91,47.04h24.82l-33.99-47.17
	C72.56,263.57,86.33,249.19,86.33,231.96z M150.57,233.16c-6.02-3.19-13.16-4.81-21.24-4.81c-8.08,0-15.31,1.78-21.48,5.29
	c-6.18,3.52-11.05,8.49-14.45,14.78c-3.41,6.27-5.13,13.77-5.13,22.27c0,8.29,1.75,15.68,5.21,21.96
	c3.47,6.29,8.47,11.24,14.86,14.7c6.38,3.46,14.03,5.21,22.75,5.21c6.91,0,13.12-1.29,18.45-3.85c5.33-2.56,9.68-6.05,12.93-10.37
	c3.09-4.11,5.17-8.75,6.19-13.8l0.11-0.54h-19.99l-0.09,0.32c-1.1,3.77-3.24,6.74-6.35,8.85c-3.34,2.26-7.45,3.41-12.2,3.41
	c-4.03,0-7.67-0.86-10.82-2.57c-3.13-1.69-5.58-4.11-7.28-7.2c-1.7-3.1-2.67-6.82-2.88-11.05v-0.66h60.38l0.07-0.37
	c0.21-1.16,0.35-2.35,0.4-3.55c0.05-1.17,0.08-2.34,0.08-3.52c-0.11-7.97-1.89-14.99-5.3-20.85
	C161.37,240.95,156.59,236.35,150.57,233.16z M143.24,248.66c3.43,2.89,5.57,7,6.35,12.22h-39.75c0.45-3.39,1.58-6.32,3.34-8.72
	c1.85-2.52,4.23-4.51,7.06-5.89c2.83-1.39,5.94-2.1,9.24-2.1C135.07,244.16,139.7,245.67,143.24,248.66z"/>
</svg>
